<svg width="146" height="141" viewBox="0 0 146 141" fill="none" xmlns="http://www.w3.org/2000/svg">
<path d="M106.459 38.1875H106.519M42.5837 11.75H103.417C120.216 11.75 133.834 24.9016 133.834 41.125V99.875C133.834 116.098 120.216 129.25 103.417 129.25H42.5837C25.785 129.25 12.167 116.098 12.167 99.875V41.125C12.167 24.9016 25.785 11.75 42.5837 11.75ZM97.3337 66.7987C98.0844 71.6882 97.2196 76.6818 94.8624 81.0692C92.5051 85.4567 88.7753 89.0145 84.2035 91.2368C79.6318 93.4591 74.4509 94.2326 69.3977 93.4474C64.3445 92.6621 59.6764 90.358 56.0573 86.8628C52.4382 83.3677 50.0524 78.8594 49.2392 73.9793C48.4261 69.0991 49.2271 64.0956 51.5281 59.6804C53.8292 55.2653 57.5133 51.6632 62.0563 49.3867C66.5993 47.1101 71.77 46.275 76.8328 47C81.9971 47.7396 86.7782 50.0636 90.4698 53.6288C94.1614 57.194 96.5679 61.8113 97.3337 66.7987Z" stroke="#881010" stroke-width="4" stroke-linecap="round" stroke-linejoin="round"/>
</svg>
