<svg width="146" height="141" viewBox="0 0 146 141" fill="none" xmlns="http://www.w3.org/2000/svg">
<path d="M97.3337 47C107.014 47 116.298 50.7138 123.143 57.3245C129.988 63.9351 133.834 72.9011 133.834 82.25V123.375H109.5V82.25C109.5 79.1337 108.218 76.145 105.937 73.9415C103.655 71.7379 100.56 70.5 97.3337 70.5C94.1069 70.5 91.0122 71.7379 88.7305 73.9415C86.4488 76.145 85.167 79.1337 85.167 82.25V123.375H60.8337V82.25C60.8337 72.9011 64.6792 63.9351 71.5243 57.3245C78.3693 50.7138 87.6533 47 97.3337 47Z" stroke="#881010" stroke-width="4" stroke-linecap="round" stroke-linejoin="round"/>
<path d="M36.5003 52.875H12.167V123.375H36.5003V52.875Z" stroke="#881010" stroke-width="4" stroke-linecap="round" stroke-linejoin="round"/>
<path d="M24.3337 35.25C31.0531 35.25 36.5003 29.9893 36.5003 23.5C36.5003 17.0107 31.0531 11.75 24.3337 11.75C17.6142 11.75 12.167 17.0107 12.167 23.5C12.167 29.9893 17.6142 35.25 24.3337 35.25Z" stroke="#881010" stroke-width="4" stroke-linecap="round" stroke-linejoin="round"/>
</svg>
