<svg width="141" height="141" viewBox="0 0 141 141" fill="none" xmlns="http://www.w3.org/2000/svg">
<path d="M23.5 117.5C20.2687 117.5 17.5026 116.349 15.2016 114.048C12.9005 111.747 11.75 108.981 11.75 105.75V35.25C11.75 32.0187 12.9005 29.2526 15.2016 26.9516C17.5026 24.6505 20.2687 23.5 23.5 23.5H117.5C120.731 23.5 123.497 24.6505 125.798 26.9516C128.099 29.2526 129.25 32.0187 129.25 35.25V105.75C129.25 108.981 128.099 111.747 125.798 114.048C123.497 116.349 120.731 117.5 117.5 117.5H23.5ZM70.5 76.375L23.5 47V105.75H117.5V47L70.5 76.375ZM70.5 64.625L117.5 35.25H23.5L70.5 64.625ZM23.5 47V35.25V105.75V47Z" fill="#881010"/>
</svg>
